<svg width="24" height="24" viewBox="0 0 24 24" fill="none" xmlns="http://www.w3.org/2000/svg">
<style>path{fill:#000}@media (prefers-color-scheme:dark){path{fill:#fff}}</style>
<path fill-rule="evenodd" clip-rule="evenodd" d="M18.988 1.19556C19.1588 0.978594 19.4774 0.935626 19.6996 1.09959L19.7165 1.11203C19.9387 1.27599 19.9803 1.5848 19.8095 1.80176L17.9235 4.1973C17.7526 4.41427 17.434 4.45724 17.2118 4.29327L17.195 4.28084C16.9728 4.11687 16.9311 3.80807 17.102 3.5911L18.988 1.19556ZM6.01267 1.19899C5.84185 0.982027 5.52324 0.939059 5.30105 1.10302L5.28419 1.11546C5.06199 1.27942 5.02035 1.58823 5.19117 1.8052L7.07722 4.20073C7.24804 4.4177 7.56664 4.46067 7.78884 4.29671L7.80569 4.28427C8.02789 4.1203 8.06954 3.8115 7.89872 3.59453L6.01267 1.19899ZM13.0439 13.6475C14.1303 13.8027 14.2097 15.3414 13.145 15.6076L11.6213 15.9885C11.3534 16.0555 11.0819 15.8926 11.0149 15.6247C10.948 15.3568 11.1108 15.0853 11.3787 15.0184L12.9025 14.6374L11.3189 14.4112C10.2059 14.2522 10.1617 12.6612 11.2642 12.4407L13.3713 12.0193L10.8211 11.5411C9.71313 11.3334 9.74221 9.73651 10.857 9.56929L13.8173 9.12525L10.3881 8.8135C9.23893 8.70903 9.15102 7.06332 10.2825 6.83703L14.4019 6.01315C14.6727 5.95899 14.9361 6.1346 14.9903 6.40538C15.0444 6.67616 14.8688 6.93957 14.5981 6.99373L10.4786 7.81761L13.9078 8.12935C15.0854 8.23641 15.135 9.93877 13.9656 10.1142L11.0053 10.5582L13.5556 11.0364C14.6366 11.2391 14.6459 12.7842 13.5674 12.9998L11.4603 13.4213L13.0439 13.6475ZM14.7743 17.8872H10.2092C8.90515 15.2485 8.27904 10.7287 8 8.49642C8 4.8213 9.56001 4.00344 12.4918 4.00344C15.4236 4.00344 16.9836 4.88687 16.9836 8.49524C16.7046 10.7276 16.0784 15.2482 14.7743 17.8872ZM16 8.80591C15.7595 10.8961 15.1881 15.081 13.9371 17H11.0628C9.81183 15.0812 9.24049 10.897 9 8.8069C9 5.69579 10.2156 5.00344 12.5 5.00344C14.7845 5.00344 16 5.75129 16 8.80591ZM14.6281 18.521L10.3475 18.521L10.7325 21.1543H10.9339L11.0606 21.4801H11.3647L11.4317 21.8247L13.5488 21.8234L13.6213 21.4801H13.916L14.031 21.1543H14.2554L14.6281 18.521ZM2.03105 5.64191C2.12684 5.38291 2.41666 5.2445 2.67757 5.33494L5.6226 6.35583C5.88351 6.44627 6.01671 6.73133 5.92092 6.99033C5.82513 7.24932 5.53531 7.38774 5.2744 7.2973L2.32937 6.27641C2.06846 6.18596 1.93526 5.90091 2.03105 5.64191ZM2.09722 11.7482C2.05763 11.475 2.24732 11.223 2.52095 11.1858L5.62172 10.7649C5.89535 10.7277 6.14931 10.9195 6.18889 11.1928C6.22848 11.4661 6.03879 11.718 5.76516 11.7552L2.66439 12.1761C2.39076 12.2133 2.1368 12.0215 2.09722 11.7482ZM3.53402 16.5904C3.27788 16.6936 3.15961 16.9852 3.26865 17.2389C3.3777 17.4926 3.67471 17.6168 3.93085 17.5137L6.81792 16.3506C7.07406 16.2474 7.19232 15.9558 7.08328 15.7021C6.97423 15.4484 6.67722 15.3242 6.42108 15.4273L3.53402 16.5904ZM22.9696 5.63848C22.8738 5.37948 22.584 5.24106 22.3231 5.33151L19.3781 6.3524C19.1172 6.44284 18.984 6.7279 19.0798 6.98689C19.1756 7.24589 19.4654 7.38431 19.7263 7.29386L22.6713 6.27298C22.9322 6.18253 23.0654 5.89747 22.9696 5.63848ZM22.9035 11.7448C22.943 11.4715 22.7533 11.2195 22.4797 11.1824L19.379 10.7614C19.1053 10.7243 18.8514 10.916 18.8118 11.1893C18.7722 11.4626 18.9619 11.7146 19.2355 11.7517L22.3363 12.1727C22.6099 12.2098 22.8639 12.0181 22.9035 11.7448ZM21.4667 16.587C21.7228 16.6902 21.8411 16.9817 21.732 17.2354C21.623 17.4891 21.326 17.6134 21.0698 17.5102L18.1828 16.3472C17.9266 16.244 17.8084 15.9524 17.9174 15.6987C18.0264 15.445 18.3235 15.3207 18.5796 15.4239L21.4667 16.587Z" fill="black"/>
</svg>
