<svg width="24" height="24" viewBox="0 0 24 24" fill="none" xmlns="http://www.w3.org/2000/svg">
<style>path{fill:#000}@media (prefers-color-scheme:dark){path{fill:#fff}}</style>
<path fill-rule="evenodd" clip-rule="evenodd" d="M19.6996 1.09616C19.4774 0.932193 19.1588 0.975161 18.988 1.19213L17.102 3.58767C16.9311 3.80463 16.9728 4.11344 17.195 4.2774L17.2118 4.28984C17.434 4.4538 17.7526 4.41084 17.9235 4.19387L19.8095 1.79833C19.9803 1.58136 19.9387 1.27256 19.7165 1.10859L19.6996 1.09616ZM22.9696 5.63504C22.8738 5.37605 22.584 5.23763 22.3231 5.32807L19.3781 6.34896C19.1172 6.43941 18.984 6.72447 19.0798 6.98346C19.1756 7.24246 19.4654 7.38088 19.7263 7.29043L22.6713 6.26954C22.9322 6.1791 23.0654 5.89404 22.9696 5.63504ZM22.4797 11.179C22.7534 11.2161 22.943 11.4681 22.9035 11.7414C22.8639 12.0147 22.6099 12.2064 22.3363 12.1693L19.2355 11.7483C18.9619 11.7112 18.7722 11.4592 18.8118 11.1859C18.8514 10.9126 19.1053 10.7209 19.379 10.758L22.4797 11.179ZM21.732 17.232C21.8411 16.9783 21.7228 16.6867 21.4667 16.5835L18.5796 15.4205C18.3235 15.3173 18.0264 15.4416 17.9174 15.6953C17.8084 15.949 17.9266 16.2405 18.1828 16.3437L21.0698 17.5068C21.326 17.61 21.623 17.4857 21.732 17.232ZM6.01267 1.19556C5.84185 0.978594 5.52325 0.935626 5.30105 1.09959L5.28419 1.11203C5.062 1.27599 5.02035 1.5848 5.19117 1.80176L7.07722 4.1973C7.24804 4.41427 7.56665 4.45724 7.78884 4.29327L7.8057 4.28083C8.02789 4.11687 8.06954 3.80807 7.89872 3.5911L6.01267 1.19556ZM2.67757 5.33151C2.41666 5.24106 2.12684 5.37948 2.03105 5.63848C1.93526 5.89747 2.06846 6.18253 2.32937 6.27297L5.2744 7.29386C5.53531 7.38431 5.82513 7.24589 5.92092 6.98689C6.01671 6.7279 5.88351 6.44284 5.6226 6.3524L2.67757 5.33151ZM2.09721 11.7448C2.05763 11.4715 2.24731 11.2195 2.52095 11.1824L5.62171 10.7614C5.89534 10.7243 6.1493 10.916 6.18889 11.1893C6.22847 11.4626 6.03879 11.7146 5.76515 11.7517L2.66439 12.1727C2.39076 12.2098 2.1368 12.0181 2.09721 11.7448ZM3.53402 16.587C3.27788 16.6902 3.15961 16.9817 3.26866 17.2354C3.3777 17.4891 3.67472 17.6134 3.93085 17.5102L6.81792 16.3472C7.07406 16.244 7.19233 15.9524 7.08328 15.6987C6.97424 15.445 6.67722 15.3207 6.42109 15.4239L3.53402 16.587ZM14.7743 17.8838C16.0784 15.2447 16.7046 10.7242 16.9836 8.49181C16.9836 4.88343 15.4236 4 12.4918 4C9.56 4 8 4.81786 8 8.49298C8.27903 10.7253 8.90515 15.245 10.2092 17.8838H14.7743ZM10.3475 18.5176L14.6281 18.5175L14.2554 21.1509H14.031L13.916 21.4767H13.6213L13.5488 21.82L11.4317 21.8212L11.3647 21.4767H11.0606L10.9339 21.1509H10.7325L10.3475 18.5176ZM12.9237 14.4855C12.9752 14.4929 13.0017 14.513 13.0176 14.5318C13.0362 14.554 13.0502 14.587 13.0523 14.6263C13.0543 14.6655 13.0438 14.6998 13.0275 14.7238C13.0136 14.7441 12.9894 14.7669 12.9388 14.7795L11.4151 15.1604C11.2276 15.2073 11.1136 15.3974 11.1605 15.5849C11.2073 15.7724 11.3974 15.8864 11.5849 15.8395L13.1086 15.4586C14.0136 15.2324 13.9462 13.9245 13.0227 13.7925L11.4391 13.5663C11.3856 13.5587 11.3592 13.5378 11.3437 13.5189C11.3253 13.4964 11.3115 13.4624 11.3104 13.422C11.3093 13.3815 11.3211 13.3469 11.3383 13.3234C11.3527 13.3037 11.3779 13.2813 11.4309 13.2707L13.538 12.8493C14.4547 12.666 14.4468 11.3527 13.5279 11.1804L10.9777 10.7022C10.9243 10.6922 10.8989 10.6701 10.8843 10.6506C10.8669 10.6273 10.8546 10.5926 10.8554 10.5521C10.8561 10.5115 10.8696 10.4773 10.8879 10.4546C10.9031 10.4357 10.9294 10.4145 10.9831 10.4064L13.9434 9.9624C14.9374 9.8133 14.8952 8.3663 13.8942 8.2753L10.4651 7.96355C10.4089 7.95845 10.3815 7.93808 10.3656 7.92006C10.3463 7.89814 10.3311 7.86388 10.3288 7.82217C10.3266 7.78046 10.3381 7.74477 10.355 7.72092C10.3689 7.70131 10.3939 7.67814 10.4492 7.66708L14.5686 6.8432C14.7582 6.80529 14.8811 6.62091 14.8432 6.43136C14.8053 6.24181 14.6209 6.11889 14.4314 6.1568L10.3119 6.98068C9.35016 7.17303 9.42488 8.57188 10.4017 8.66068L13.8309 8.97242C13.8893 8.97773 13.9165 8.99894 13.9319 9.01689C13.951 9.03914 13.966 9.0744 13.9672 9.11744C13.9685 9.16049 13.9556 9.19656 13.9378 9.21988C13.9235 9.23869 13.8975 9.26145 13.8395 9.27015L10.8793 9.71419C9.93169 9.85633 9.90697 11.2137 10.8487 11.3902L13.3989 11.8684C13.4503 11.878 13.4758 11.8994 13.4909 11.9189C13.5085 11.9418 13.5211 11.9755 13.5213 12.0149C13.5215 12.0543 13.5094 12.0882 13.492 12.1113C13.4772 12.131 13.452 12.1527 13.4007 12.1629L11.2936 12.5843C10.3565 12.7718 10.394 14.1241 11.3401 14.2593L12.9237 14.4855Z" fill="black"/>
</svg>
