<svg width="24" height="24" viewBox="0 0 24 24" fill="none" xmlns="http://www.w3.org/2000/svg">
<style>path{fill:#000}@media (prefers-color-scheme:dark){path{fill:#fff}}</style>
<path fill-rule="evenodd" clip-rule="evenodd" d="M18.988 1.19213C19.1588 0.975161 19.4774 0.932193 19.6996 1.09616L19.7165 1.10859C19.9387 1.27256 19.9803 1.58136 19.8095 1.79833L17.9235 4.19387C17.7526 4.41084 17.434 4.4538 17.2118 4.28984L17.195 4.2774C16.9728 4.11344 16.9311 3.80463 17.102 3.58767L18.988 1.19213ZM6.01267 1.19556C5.84185 0.978594 5.52324 0.935626 5.30105 1.09959L5.28419 1.11203C5.06199 1.27599 5.02035 1.5848 5.19117 1.80176L7.07722 4.1973C7.24804 4.41427 7.56664 4.45724 7.78884 4.29327L7.80569 4.28083C8.02789 4.11687 8.06954 3.80807 7.89872 3.5911L6.01267 1.19556ZM13.0176 14.5318C13.0017 14.513 12.9752 14.4929 12.9237 14.4855L11.3401 14.2593C10.394 14.1241 10.3565 12.7718 11.2936 12.5843L13.4007 12.1629C13.452 12.1527 13.4772 12.131 13.492 12.1113C13.5094 12.0882 13.5215 12.0543 13.5213 12.0149C13.5211 11.9755 13.5085 11.9418 13.4909 11.9189C13.4758 11.8994 13.4503 11.878 13.3989 11.8684L10.8487 11.3902C9.90697 11.2137 9.93169 9.85633 10.8793 9.7142L13.8395 9.27015C13.8975 9.26145 13.9235 9.23869 13.9378 9.21988C13.9556 9.19656 13.9685 9.16049 13.9672 9.11745C13.966 9.0744 13.951 9.03915 13.9319 9.0169C13.9165 8.99895 13.8893 8.97774 13.8309 8.97243L10.4017 8.66068C9.42488 8.57188 9.35016 7.17303 10.3119 6.98068L14.4314 6.1568C14.6209 6.11889 14.8053 6.24182 14.8432 6.43136C14.8811 6.62091 14.7582 6.8053 14.5686 6.84321L10.4492 7.66709C10.3939 7.67814 10.3689 7.70131 10.355 7.72093C10.3381 7.74477 10.3266 7.78047 10.3288 7.82217C10.3311 7.86388 10.3463 7.89815 10.3656 7.92006C10.3815 7.93808 10.4089 7.95845 10.4651 7.96356L13.8942 8.2753C14.8952 8.3663 14.9374 9.81331 13.9434 9.96241L10.9831 10.4065C10.9294 10.4145 10.9031 10.4357 10.8879 10.4546C10.8696 10.4773 10.8561 10.5115 10.8554 10.5521C10.8546 10.5926 10.8669 10.6273 10.8843 10.6506C10.8989 10.6701 10.9243 10.6922 10.9777 10.7022L13.5279 11.1804C14.4468 11.3527 14.4547 12.666 13.538 12.8493L11.4309 13.2707C11.3779 13.2814 11.3527 13.3037 11.3383 13.3234C11.3211 13.3469 11.3093 13.3816 11.3104 13.422C11.3115 13.4624 11.3253 13.4964 11.3437 13.5189C11.3592 13.5378 11.3856 13.5587 11.4391 13.5663L13.0227 13.7925C13.9462 13.9245 14.0136 15.2324 13.1086 15.4586L11.5849 15.8396C11.3974 15.8864 11.2073 15.7724 11.1604 15.5849C11.1136 15.3974 11.2276 15.2073 11.4151 15.1605L12.9388 14.7795C12.9894 14.7669 13.0136 14.7441 13.0275 14.7238C13.0438 14.6998 13.0543 14.6655 13.0523 14.6263C13.0502 14.587 13.0362 14.554 13.0176 14.5318ZM16.9836 8.49181C16.7046 10.7242 16.0784 15.2447 14.7743 17.8838H10.2092C8.90515 15.245 8.27903 10.7253 8 8.49298C8 4.81787 9.56 4 12.4918 4C15.4236 4 16.9836 4.88344 16.9836 8.49181ZM14.6281 18.5175L10.3475 18.5176L10.7325 21.1509H10.9339L11.0606 21.4767H11.3647L11.4317 21.8212L13.5488 21.82L13.6213 21.4767H13.916L14.031 21.1509H14.2554L14.6281 18.5175ZM2.03105 5.63848C2.12684 5.37948 2.41666 5.24106 2.67757 5.33151L5.6226 6.3524C5.88351 6.44284 6.01671 6.7279 5.92092 6.98689C5.82513 7.24589 5.53531 7.38431 5.2744 7.29386L2.32937 6.27297C2.06846 6.18253 1.93526 5.89747 2.03105 5.63848ZM2.09722 11.7448C2.05763 11.4715 2.24732 11.2195 2.52095 11.1824L5.62172 10.7614C5.89535 10.7243 6.14931 10.916 6.18889 11.1893C6.22848 11.4626 6.03879 11.7146 5.76516 11.7517L2.66439 12.1727C2.39076 12.2098 2.1368 12.0181 2.09722 11.7448ZM3.53402 16.587C3.27788 16.6902 3.15961 16.9817 3.26865 17.2354C3.3777 17.4891 3.67471 17.6134 3.93085 17.5102L6.81792 16.3472C7.07406 16.244 7.19232 15.9524 7.08328 15.6987C6.97423 15.445 6.67722 15.3207 6.42108 15.4239L3.53402 16.587ZM22.9696 5.63504C22.8738 5.37605 22.584 5.23763 22.3231 5.32807L19.3781 6.34896C19.1172 6.43941 18.984 6.72447 19.0798 6.98346C19.1756 7.24246 19.4654 7.38088 19.7263 7.29043L22.6713 6.26954C22.9322 6.1791 23.0654 5.89404 22.9696 5.63504ZM22.9035 11.7414C22.943 11.4681 22.7533 11.2161 22.4797 11.179L19.379 10.758C19.1053 10.7209 18.8514 10.9126 18.8118 11.1859C18.7722 11.4592 18.9619 11.7112 19.2355 11.7483L22.3363 12.1693C22.6099 12.2064 22.8639 12.0147 22.9035 11.7414ZM21.4667 16.5835C21.7228 16.6867 21.8411 16.9783 21.732 17.232C21.623 17.4857 21.326 17.61 21.0698 17.5068L18.1828 16.3437C17.9266 16.2405 17.8084 15.949 17.9174 15.6953C18.0264 15.4416 18.3235 15.3173 18.5796 15.4205L21.4667 16.5835Z" fill="black"/>
</svg>
