<svg width="24" height="24" viewBox="0 0 24 24" fill="none" xmlns="http://www.w3.org/2000/svg">
<style>path{fill:#000}@media (prefers-color-scheme:dark){path{fill:#fff}}</style>
<path fill-rule="evenodd" clip-rule="evenodd" d="M21 12C21 16.9706 16.9706 21 12 21C7.02944 21 3 16.9706 3 12C3 7.02944 7.02944 3 12 3C16.9706 3 21 7.02944 21 12ZM22 12C22 17.5228 17.5228 22 12 22C6.47715 22 2 17.5228 2 12C2 6.47715 6.47715 2 12 2C17.5228 2 22 6.47715 22 12ZM6.28629 9.71797V14.0816H8.05263C8.38644 14.0816 8.66342 14.0298 8.88359 13.9261C9.10377 13.8224 9.26854 13.681 9.37791 13.5021C9.48729 13.3217 9.54198 13.1185 9.54198 12.8927C9.54198 12.6711 9.49652 12.4822 9.40561 12.3259C9.3147 12.1697 9.19752 12.0489 9.05405 11.9637C8.912 11.8771 8.76357 11.8295 8.60874 11.821V11.7783C8.75078 11.7442 8.87933 11.6881 8.99439 11.61C9.10945 11.5319 9.20107 11.4303 9.26925 11.3053C9.33743 11.1789 9.37152 11.0269 9.37152 10.8494C9.37152 10.6335 9.31896 10.4403 9.21385 10.2698C9.11016 10.0994 8.9532 9.96513 8.74297 9.86712C8.53416 9.76768 8.27209 9.71797 7.95675 9.71797H6.28629ZM7.92692 13.4211H7.07678V12.1427H7.94823C8.11158 12.1427 8.2522 12.1732 8.3701 12.2343C8.488 12.294 8.57891 12.3763 8.64283 12.4815C8.70675 12.5852 8.73871 12.7016 8.73871 12.8309C8.73871 13.0042 8.67479 13.1462 8.54695 13.257C8.42053 13.3664 8.21385 13.4211 7.92692 13.4211ZM7.85874 11.5738H7.07678V10.37H7.87578C8.10874 10.37 8.28416 10.4246 8.40206 10.534C8.52138 10.6434 8.58104 10.7826 8.58104 10.9516C8.58104 11.0795 8.54908 11.1903 8.48516 11.284C8.42266 11.3763 8.33672 11.4481 8.22734 11.4992C8.11797 11.5489 7.9951 11.5738 7.85874 11.5738ZM10.8241 9.71797H9.93136L11.5187 12.4538V14.0816H12.3071V12.4538L13.8944 9.71797H13.0017L11.9342 11.6484H11.8916L10.8241 9.71797ZM18.0402 14.0816V9.71797H17.254V12.6924H17.2156L15.1616 9.71797H14.4543V14.0816H15.2447V11.1093H15.281L17.3371 14.0816H18.0402Z"/>
</svg>
