<svg width="24" height="24" viewBox="0 0 24 24" fill="none" xmlns="http://www.w3.org/2000/svg">
<path fill-rule="evenodd" clip-rule="evenodd" d="M4.37866 3.429L4.07799 3.87375L4.40205 4.30176L5.34011 5.54072L4.364 7.1025L5.636 7.8975L6.886 5.8975L7.15989 5.45928L6.84795 5.04727L5.92201 3.82432L6.87134 2.42004L5.62866 1.57996L4.37866 3.429ZM2 10C2 9.44771 2.44772 9 3 9H21C21.5523 9 22 9.44772 22 10V20C22 20.5523 21.5523 21 21 21V22H20V21H4V22H3L3 21C2.44772 21 2 20.5523 2 20V10ZM3 10.01C3 10.0045 3.00448 10 3.01 10H10.99C10.9955 10 11 10.0045 11 10.01V10.99C11 10.9955 10.9955 11 10.99 11H3.01C3.00448 11 3 10.9955 3 10.99V10.01ZM4.01 12C4.00448 12 4 12.0045 4 12.01V12.99C4 12.9955 4.00448 13 4.01 13H10.99C10.9955 13 11 12.9955 11 12.99V12.01C11 12.0045 10.9955 12 10.99 12H4.01ZM5.01 14C5.00448 14 5 14.0045 5 14.01V14.99C5 14.9955 5.00448 15 5.01 15H10.99C10.9955 15 11 14.9955 11 14.99V14.01C11 14.0045 10.9955 14 10.99 14H5.01ZM10.078 3.87375L10.3787 3.429L11.6287 1.57996L12.8713 2.42004L11.922 3.82432L12.8479 5.04727L13.1599 5.45928L12.886 5.8975L11.636 7.8975L10.364 7.1025L11.3401 5.54072L10.4021 4.30176L10.078 3.87375ZM16.3787 3.429L16.078 3.87375L16.4021 4.30176L17.3401 5.54072L16.364 7.1025L17.636 7.8975L18.886 5.8975L19.1599 5.45928L18.8479 5.04727L17.922 3.82432L18.8713 2.42004L17.6287 1.57996L16.3787 3.429Z" fill="black"/>
</svg>
