<svg width="24" height="24" viewBox="0 0 24 24" fill="none" xmlns="http://www.w3.org/2000/svg">
<style>path{fill:#000}@media (prefers-color-scheme:dark){path{fill:#fff}}</style>
<path fill-rule="evenodd" clip-rule="evenodd" d="M4.37866 3.429L4.07799 3.87375L4.40205 4.30176L5.34011 5.54072L4.364 7.1025L5.636 7.8975L6.886 5.8975L7.15989 5.45928L6.84795 5.04727L5.92201 3.82432L6.87134 2.42004L5.62866 1.57996L4.37866 3.429ZM3 9C2.44772 9 2 9.44771 2 10V20C2 20.5523 2.44772 21 3 21L3 22H4V21H20V22H21V21C21.5523 21 22 20.5523 22 20V10C22 9.44772 21.5523 9 21 9H3ZM13.01 10C13.0045 10 13 10.0045 13 10.01V10.99C13 10.9955 13.0045 11 13.01 11H20.99C20.9955 11 21 10.9955 21 10.99V10.01C21 10.0045 20.9955 10 20.99 10H13.01ZM13 12.01C13 12.0045 13.0045 12 13.01 12H19.99C19.9955 12 20 12.0045 20 12.01V12.99C20 12.9955 19.9955 13 19.99 13H13.01C13.0045 13 13 12.9955 13 12.99V12.01ZM13.01 14C13.0045 14 13 14.0045 13 14.01V14.99C13 14.9955 13.0045 15 13.01 15H18.99C18.9955 15 19 14.9955 19 14.99V14.01C19 14.0045 18.9955 14 18.99 14H13.01ZM5 14.01C5 14.0045 5.00448 14 5.01 14H10.99C10.9955 14 11 14.0045 11 14.01V14.99C11 14.9955 10.9955 15 10.99 15H5.01C5.00448 15 5 14.9955 5 14.99V14.01ZM4.01 12C4.00448 12 4 12.0045 4 12.01V12.99C4 12.9955 4.00448 13 4.01 13H10.99C10.9955 13 11 12.9955 11 12.99V12.01C11 12.0045 10.9955 12 10.99 12H4.01ZM3 10.01C3 10.0045 3.00448 10 3.01 10H10.99C10.9955 10 11 10.0045 11 10.01V10.99C11 10.9955 10.9955 11 10.99 11H3.01C3.00448 11 3 10.9955 3 10.99V10.01ZM10.078 3.87375L10.3787 3.429L11.6287 1.57996L12.8713 2.42004L11.922 3.82432L12.8479 5.04727L13.1599 5.45928L12.886 5.8975L11.636 7.8975L10.364 7.1025L11.3401 5.54072L10.4021 4.30176L10.078 3.87375ZM16.3787 3.429L16.078 3.87375L16.4021 4.30176L17.3401 5.54072L16.364 7.1025L17.636 7.8975L18.886 5.8975L19.1599 5.45928L18.8479 5.04727L17.922 3.82432L18.8713 2.42004L17.6287 1.57996L16.3787 3.429Z" fill="black"/>
</svg>
