<svg width="24" height="24" fill="none" xmlns="http://www.w3.org/2000/svg"><style>path{fill:#000}@media (prefers-color-scheme:dark){path{fill:#fff}}</style><path fill-rule="evenodd" clip-rule="evenodd" d="m4.355 3.297-.241.407.262.393.748 1.122-.781 1.42 1.314.722 1-1.818.22-.398-.253-.379-.738-1.108.759-1.275-1.29-.766-1 1.68zm6 0-.241.407.262.393.748 1.122-.781 1.42 1.314.722 1-1.818.22-.398-.253-.379-.738-1.108.759-1.275-1.29-.766-1 1.68zm5.759.407.241-.407 1-1.68 1.29.766-.759 1.275.738 1.108.252.379-.219.398-1 1.818-1.314-.722.78-1.42-.747-1.122-.262-.393zM3 9a1 1 0 0 0-1 1v10a1 1 0 0 0 1 1v1h1v-1h16v1h1v-1a1 1 0 0 0 1-1V10a1 1 0 0 0-1-1H3zm18 1h-8v1h8v-1zM3 10h8v1H3v-1zm17 2h-7v1h7v-1zM4 12h7v1H4v-1zm15 2h-6v1h6v-1zM5 14h6v1H5v-1z"/></svg>