<svg width="24" height="24" viewBox="0 0 24 24" fill="none" xmlns="http://www.w3.org/2000/svg">
<style>path{fill:#000}@media (prefers-color-scheme:dark){path{fill:#fff}}</style>
<path fill-rule="evenodd" clip-rule="evenodd" d="M4.07799 3.87375L4.37866 3.429L5.62866 1.57996L6.87134 2.42004L5.92201 3.82432L6.84795 5.04727L7.15989 5.45928L6.886 5.8975L5.636 7.8975L4.364 7.1025L5.34011 5.54072L4.40205 4.30176L4.07799 3.87375ZM3 9C2.44772 9 2 9.44771 2 10V20C2 20.5523 2.44772 21 3 21L3 22H4V21H20V22H21V21C21.5523 21 22 20.5523 22 20V10C22 9.44772 21.5523 9 21 9H3ZM11 14H6V15H11V14ZM11 13H5V12H11V13ZM13 14V15H18V14H13ZM13 13V12H19V13H13ZM13 11H20V10H13V11ZM11 10H4V11H11V10ZM10.3787 3.429L10.078 3.87375L10.4021 4.30176L11.3401 5.54072L10.364 7.1025L11.636 7.8975L12.886 5.8975L13.1599 5.45928L12.8479 5.04727L11.922 3.82432L12.8713 2.42004L11.6287 1.57996L10.3787 3.429ZM16.078 3.87375L16.3787 3.429L17.6287 1.57996L18.8713 2.42004L17.922 3.82432L18.8479 5.04727L19.1599 5.45928L18.886 5.8975L17.636 7.8975L16.364 7.1025L17.3401 5.54072L16.4021 4.30176L16.078 3.87375Z" fill="black"/>
</svg>
