<svg width="24" height="24" viewBox="0 0 24 24" fill="none" xmlns="http://www.w3.org/2000/svg">
<style>path{fill:#000}@media (prefers-color-scheme:dark){path{fill:#fff}}</style>
<path d="M4.99915 6.08627L4.364 7.1025L5.636 7.8975L6.08865 7.17325L7.91966 9H3C2.44772 9 2 9.44771 2 10V20C2 20.5523 2.44772 21 3 21L3 22H4V21H19.9476L20 21.0523V22H21V21.9382L22.0356 20.9001L3.09154 2L2 3.09408L4.99915 6.08627ZM13.9336 15L13 14.0686V15H13.9336ZM10.9266 12L11 12.0732V13H4V12H10.9266ZM9.92431 11L8.92198 10H3V11H9.92431ZM20 13H16.1195L17.1218 14H19V15H18.1241L22 18.8669V10C22 9.44771 21.5523 9 21 9H12.1102L13.1125 10H21V11H14.1148L15.1171 12H20V13ZM5.24367 2.14945L6.32497 3.22825L6.87134 2.42004L5.62866 1.57996L5.24367 2.14945ZM5 14H11V15H5V14ZM10.078 3.87375L10.3787 3.429L11.6287 1.57996L12.8713 2.42004L11.922 3.82432L12.8479 5.04727L13.1599 5.45928L12.886 5.8975L11.636 7.8975L10.364 7.1025L11.3401 5.54072L10.4021 4.30176L10.078 3.87375ZM16.3787 3.429L16.078 3.87375L16.4021 4.30176L17.3401 5.54072L16.364 7.1025L17.636 7.8975L18.886 5.8975L19.1599 5.45928L18.8479 5.04727L17.922 3.82432L18.8713 2.42004L17.6287 1.57996L16.3787 3.429Z"/>
</svg>
