<svg width="24" height="24" viewBox="0 0 24 24" fill="none" xmlns="http://www.w3.org/2000/svg">
<style>path{fill:#000}@media (prefers-color-scheme:dark){path{fill:#fff}}</style>
<path fill-rule="evenodd" clip-rule="evenodd" d="M4.37866 3.429L4.07799 3.87375L4.40205 4.30176L5.34011 5.54072L4.364 7.1025L5.636 7.8975L6.886 5.8975L7.15989 5.45928L6.84795 5.04727L5.92201 3.82432L6.87134 2.42004L5.62866 1.57996L4.37866 3.429ZM3 9C2.44772 9 2 9.44771 2 10V20C2 20.5523 2.44772 21 3 21L3 22H4V21H20V22H21V21C21.5523 21 22 20.5523 22 20V10C22 9.44772 21.5523 9 21 9H3ZM18 14H13V15H18V14ZM19 13H13V12H19V13ZM11 13V12H5V13H11ZM20 11H13V10H20V11ZM11 11V10H4V11H11ZM11 15V14H6V15H11ZM10.078 3.87375L10.3787 3.429L11.6287 1.57996L12.8713 2.42004L11.922 3.82432L12.8479 5.04727L13.1599 5.45928L12.886 5.8975L11.636 7.8975L10.364 7.1025L11.3401 5.54072L10.4021 4.30176L10.078 3.87375ZM16.3787 3.429L16.078 3.87375L16.4021 4.30176L17.3401 5.54072L16.364 7.1025L17.636 7.8975L18.886 5.8975L19.1599 5.45928L18.8479 5.04727L17.922 3.82432L18.8713 2.42004L17.6287 1.57996L16.3787 3.429Z" fill="black"/>
</svg>
