<svg width="24" height="24" viewBox="0 0 24 24" fill="none" xmlns="http://www.w3.org/2000/svg">
<path d="M4.07799 3.87375L5.62866 1.57996L6.87134 2.42004L5.92201 3.82432L7.15989 5.45928L5.636 7.8975L4.364 7.1025L5.34011 5.54072L4.07799 3.87375Z" fill="black"/>
<path fill-rule="evenodd" clip-rule="evenodd" d="M2 10C2 9.44771 2.44772 9 3 9H21C21.5523 9 22 9.44771 22 10V20C22 20.5523 21.5523 21 21 21V22H20V21H4V22H3L3 21C2.44772 21 2 20.5523 2 20V10ZM13 10.01C13 10.0045 13.0045 10 13.01 10H20.99C20.9955 10 21 10.0045 21 10.01V10.99C21 10.9955 20.9955 11 20.99 11H13.01C13.0045 11 13 10.9955 13 10.99V10.01ZM13.01 12C13.0045 12 13 12.0045 13 12.01V12.99C13 12.9955 13.0045 13 13.01 13H19.99C19.9955 13 20 12.9955 20 12.99V12.01C20 12.0045 19.9955 12 19.99 12H13.01ZM13 14.01C13 14.0045 13.0045 14 13.01 14H18.99C18.9955 14 19 14.0045 19 14.01V14.99C19 14.9955 18.9955 15 18.99 15H13.01C13.0045 15 13 14.9955 13 14.99V14.01ZM5.01 14C5.00448 14 5 14.0045 5 14.01V14.99C5 14.9955 5.00448 15 5.01 15H10.99C10.9955 15 11 14.9955 11 14.99V14.01C11 14.0045 10.9955 14 10.99 14H5.01ZM4 12.01C4 12.0045 4.00448 12 4.01 12H10.99C10.9955 12 11 12.0045 11 12.01V12.99C11 12.9955 10.9955 13 10.99 13H4.01C4.00448 13 4 12.9955 4 12.99V12.01ZM3.01 10C3.00448 10 3 10.0045 3 10.01V10.99C3 10.9955 3.00448 11 3.01 11H10.99C10.9955 11 11 10.9955 11 10.99V10.01C11 10.0045 10.9955 10 10.99 10H3.01Z" fill="black"/>
<path d="M10.078 3.87375L11.3401 5.54072L10.364 7.1025L11.636 7.8975L13.1599 5.45928L11.922 3.82432L12.8713 2.42004L11.6287 1.57996L10.078 3.87375Z" fill="black"/>
</svg>
