<svg width="24" height="24" viewBox="0 0 24 24" fill="none" xmlns="http://www.w3.org/2000/svg">
<style>path{fill:#000}@media (prefers-color-scheme:dark){path{fill:#fff}}</style>
<path fill-rule="evenodd" clip-rule="evenodd" d="M4.35544 3.29749L4.11385 3.70358L4.37585 4.0968L5.12357 5.21904L4.34284 6.63856L5.65716 7.36144L6.65716 5.54326L6.87643 5.1446L6.62415 4.76596L5.88615 3.65831L6.64456 2.38345L5.35544 1.61655L4.35544 3.29749ZM10.3554 3.29749L10.1139 3.70358L10.3759 4.0968L11.1236 5.21904L10.3428 6.63856L11.6572 7.36144L12.6572 5.54326L12.8764 5.1446L12.6241 4.76596L11.8861 3.65831L12.6446 2.38345L11.3554 1.61655L10.3554 3.29749ZM16.1139 3.70358L16.3554 3.29749L17.3554 1.61655L18.6446 2.38345L17.8861 3.65831L18.6241 4.76596L18.8764 5.1446L18.6572 5.54326L17.6572 7.36144L16.3428 6.63856L17.1236 5.21904L16.3759 4.0968L16.1139 3.70358ZM3 9C2.44772 9 2 9.44771 2 10V20C2 20.5523 2.44772 21 3 21L3 22H4V21H20V22H21V21C21.5523 21 22 20.5523 22 20V10C22 9.44772 21.5523 9 21 9H3ZM21 10H13V11H21V10ZM3 10H11V11H3V10ZM20 12H13V13H20V12ZM4 12H11V13H4V12ZM19 14H13V15H19V14ZM5 14H11V15H5V14Z" fill="white"/>
</svg>
