<svg width="24" height="24" viewBox="0 0 24 24" fill="none" xmlns="http://www.w3.org/2000/svg">
<path fill-rule="evenodd" clip-rule="evenodd" d="M5.34 5.96076L4.07788 4.29379L5.62855 2L6.87123 2.84008L5.9219 4.24436L7.15978 5.87932L5.63589 8.31754L4.36389 7.52254L5.34 5.96076ZM11.6286 2L10.0779 4.29379L11.34 5.96076L10.3639 7.52254L11.6359 8.31754L13.1598 5.87932L11.9219 4.24436L12.8712 2.84008L11.6286 2ZM16.0779 4.29379L17.34 5.96076L16.3639 7.52254L17.6359 8.31754L19.1598 5.87932L17.9219 4.24436L18.8712 2.84008L17.6286 2L16.0779 4.29379ZM3 9.42004C2.44775 9.42004 2 9.86774 2 10.42V20.42C2 20.9723 2.44775 21.42 3 21.42V22.42H4V21.42H20V22.42H21V21.42C21.5522 21.42 22 20.9723 22 20.42V10.42C22 9.86776 21.5522 9.42004 21 9.42004H3ZM11 10.42H3V11.42H11V10.42ZM11 12.42H4V13.42H11V12.42ZM5 14.42H11V15.42H5V14.42ZM21 10.42H13V11.42H21V10.42ZM13 12.42H20V13.42H13V12.42ZM19 14.42H13V15.42H19V14.42Z" fill="black"/>
</svg>
