<svg width="24" height="24" viewBox="0 0 24 24" fill="none" xmlns="http://www.w3.org/2000/svg">
<style>path{fill:#000}@media (prefers-color-scheme:dark){path{fill:#fff}}</style>
<path fill-rule="evenodd" clip-rule="evenodd" d="M4.35544 3.29749L4.11385 3.70358L4.37585 4.0968L5.12357 5.21904L4.34284 6.63856L5.65716 7.36144L6.65716 5.54326L6.87643 5.1446L6.62415 4.76596L5.88615 3.65831L6.64456 2.38345L5.35544 1.61655L4.35544 3.29749ZM10.3554 3.29749L10.1139 3.70358L10.3759 4.0968L11.1236 5.21904L10.3428 6.63856L11.6572 7.36144L12.6572 5.54326L12.8764 5.1446L12.6241 4.76596L11.8861 3.65831L12.6446 2.38345L11.3554 1.61655L10.3554 3.29749ZM16.1139 3.70358L16.3554 3.29749L17.3554 1.61655L18.6446 2.38345L17.8861 3.65831L18.6241 4.76596L18.8764 5.1446L18.6572 5.54326L17.6572 7.36144L16.3428 6.63856L17.1236 5.21904L16.3759 4.0968L16.1139 3.70358ZM4 9C2.89543 9 2 9.89543 2 11V19C2 20.1046 2.89543 21 4 21L4 22H5V21H19V22H20V21C21.1046 21 22 20.1046 22 19V11C22 9.89543 21.1046 9 20 9H4ZM20 11H13V12H20V11ZM4 11H11V12H4V11ZM19 13H13V14H19V13ZM5 13H11V14H5V13ZM18 15H13V16H18V15ZM6 15H11V16H6V15Z" fill="black"/>
</svg>
