<svg width="24" height="24" viewBox="0 0 24 24" fill="none" xmlns="http://www.w3.org/2000/svg">
<style>path{fill:#000}@media (prefers-color-scheme:dark){path{fill:#fff}}</style>
<path fill-rule="evenodd" clip-rule="evenodd" d="M9.23921 10.3165V20.327L11.2392 21.827V12.3118L11.7392 12.8107V21.827L14.7392 20.827V15.8037L20.9441 21.9942L22.0356 20.9001L3.09154 2L2 3.09408L9.23921 10.3165ZM11.7392 8.62759L14.7392 11.6206V2.82703L11.7392 3.82703V8.62759ZM9.23921 6.1334L11.2392 8.12875V3.82703L9.23921 2.32703V6.1334ZM12.2454 1L9.3034 1.97619L11.5175 3.61536L14.6865 2.55109L12.2454 1ZM9.04668 20.3838L11.4489 22.1872L15.0238 20.9855L15.0047 21.4249L11.426 22.6999L9.0528 20.8849L9.04668 20.3838Z" fill="black"/>
</svg>
