<svg width="24" height="24" viewBox="0 0 24 24" fill="none" xmlns="http://www.w3.org/2000/svg">
<rect x="3.09155" y="2" width="26.7599" height="1.54547" transform="rotate(44.9334 3.09155 2)" fill="black"/>
<style>path{fill:#000}@media (prefers-color-scheme:dark){path{fill:#fff}}</style>
<path fill-rule="evenodd" clip-rule="evenodd" d="M9.23921 8.31649V20.327L11.2392 21.827V10.3118L9.23921 8.31649ZM11.7392 10.8107V21.827L14.7392 20.827V13.8037L11.7392 10.8107ZM14.7392 11.6206L11.7392 8.62759V3.82703L14.7392 2.82703V11.6206ZM11.2392 8.12875L9.23921 6.1334V2.32703L11.2392 3.82703V8.12875ZM9.30341 1.97619L12.2454 1L14.6865 2.55109L11.5175 3.61536L9.30341 1.97619ZM11.4489 22.1872L9.04668 20.3838L9.0528 20.8849L11.426 22.6999L15.0047 21.4249L15.0238 20.9855L11.4489 22.1872Z" fill="black"/>
</svg>
