<svg width="24" height="24" viewBox="0 0 24 24" fill="none" xmlns="http://www.w3.org/2000/svg">
<style>path{fill:#000}@media (prefers-color-scheme:dark){path{fill:#fff}}</style>
<path d="M7 7.52505V18C7 19.1046 7.89543 20 9 20H10V19C8.89543 19 8 18.1046 8 17V8.64956L9 9.77407V17C9 17.5523 9.44772 18 10 18H11V19V20C11 20.9655 10.0309 22 8.5 22C6.96912 22 6 20.9655 6 20V15.5C6 15.2239 5.77614 15 5.5 15C5.22386 15 5 15.2239 5 15.5V20C5 21.6569 6.56701 23 8.5 23C10.433 23 12 21.6569 12 20V19V18H13C13.5523 18 14 17.5523 14 17V15.3966L15 16.5211V17C15 18.1046 14.1046 19 13 19V20H16C16.5951 20 17.1294 19.7401 17.4958 19.3277L20.878 23.131L22.0329 22.104L3.37106 1.11859L2.21618 2.1456L7 7.52505ZM9 5.32387L14 10.9464V4C14 3.44772 13.5523 3 13 3H10C9.44772 3 9 3.44772 9 4V5.32387ZM15 4V12.0709L18 15.4445V3C18 1.89543 17.1046 1 16 1H9C7.89543 1 7 1.89543 7 3V3.07486L8 4.19937V4C8 2.89543 8.89543 2 10 2H13C14.1046 2 15 2.89543 15 4Z"/>
</svg>
