<svg width="24" height="24" viewBox="0 0 24 24" fill="none" xmlns="http://www.w3.org/2000/svg">
<style>path{fill:#000}@media (prefers-color-scheme:dark){path{fill:#fff}}</style>
<path d="M9 1C7.89543 1 7 1.89543 7 3V18C7 19.1046 7.89543 20 9 20H10V19C8.89543 19 8 18.1046 8 17V4C8 2.89543 8.89543 2 10 2H13C14.1046 2 15 2.89543 15 4V17C15 18.1046 14.1046 19 13 19V20H16C17.1046 20 18 19.1046 18 18V3C18 1.89543 17.1046 1 16 1H9ZM5 15.5C5 15.2239 5.22386 15 5.5 15C5.77614 15 6 15.2239 6 15.5V20C6 20.9655 6.96911 22 8.5 22C10.0309 22 11 20.9655 11 20V19V18H10C9.44771 18 9 17.5523 9 17V4C9 3.44772 9.44771 3 10 3H13C13.5523 3 14 3.44772 14 4V17C14 17.5523 13.5523 18 13 18H12V19V20C12 21.6569 10.433 23 8.5 23C6.567 23 5 21.6569 5 20V15.5Z"/>
</svg>
