<svg width="24" height="24" viewBox="0 0 24 24" fill="none" xmlns="http://www.w3.org/2000/svg">
<style>path{fill:#000}@media (prefers-color-scheme:dark){path{fill:#fff}}</style>
<path d="M21.0329 21.104L3.15488 1L2 2.02701L5.00003 5.40057V17C5.00003 18.1046 5.89546 19 7.00003 19C7.00003 21.2091 8.79089 23 11 23C13.2091 23 15 21.2091 15 19V17C15.0972 17 15.1911 16.9862 15.2799 16.9603L16.1886 17.9822C16.1276 17.9939 16.0645 18 16 18V19C16.3248 19 16.6315 18.9226 16.9027 18.7852L19.878 22.131L21.0329 21.104ZM11 12.1476V16C11 16.5523 11.4477 17 12 17H14V19C14 20.6569 12.6569 22 11 22C9.34318 22 8.00003 20.6569 8.00003 19H13V18H11C10.4477 18 10 17.5523 10 17V11.0231L11 12.1476ZM7.80273 4.102L7.93084 4.24607C7.8978 4.19014 7.85418 4.14119 7.80273 4.102ZM9.00003 4.5C9.00003 4.76638 8.9306 5.01655 8.80883 5.23338L10 6.57289V3C10 2.44772 10.4477 2 11 2H16C16.5523 2 17 2.44772 17 3V14.4445L18 15.569V3C18 1.89543 17.1046 1 16 1H7.00003C6.44217 1 5.93766 1.2284 5.5749 1.59679L6.92447 3.11439C7.1017 3.04069 7.29611 3 7.50003 3C8.32846 3 9.00003 3.67157 9.00003 4.5ZM16 13.3199L11 7.6974V4C11 3.44772 11.4477 3 12 3H15C15.5523 3 16 3.44772 16 4V13.3199Z"/>
</svg>
