<svg width="24" height="24" viewBox="0 0 24 24" fill="none" xmlns="http://www.w3.org/2000/svg">
<style>path{fill:#000}@media (prefers-color-scheme:dark){path{fill:#fff}}</style>
<path d="M6 3C6 1.89543 6.89543 1 8 1H17C18.1046 1 19 1.89543 19 3V17C19 18.1046 18.1046 19 17 19V18C17.5523 18 18 17.5523 18 17V3C18 2.44772 17.5523 2 17 2H12C11.4477 2 11 2.44772 11 3V17C11 17.5523 11.4477 18 12 18H14V19H9C9 20.6569 10.3432 22 12 22C13.6569 22 15 20.6569 15 19V17H13C12.4477 17 12 16.5523 12 16V4C12 3.44772 12.4477 3 13 3H16C16.5523 3 17 3.44772 17 4V16C17 16.5523 16.5523 17 16 17V19C16 21.2091 14.2091 23 12 23C9.79086 23 8 21.2091 8 19C6.89543 19 6 18.1046 6 17V3ZM8.5 6C9.32843 6 10 5.32843 10 4.5C10 3.67157 9.32843 3 8.5 3C7.67157 3 7 3.67157 7 4.5C7 5.32843 7.67157 6 8.5 6ZM8.5 5C8.77614 5 9 4.77614 9 4.5C9 4.22386 8.77614 4 8.5 4C8.22386 4 8 4.22386 8 4.5C8 4.77614 8.22386 5 8.5 5Z"/>
</svg>
