<svg width="24" height="24" viewBox="0 0 24 24" fill="none" xmlns="http://www.w3.org/2000/svg">
<style>path{fill:#000}@media (prefers-color-scheme:dark){path{fill:#fff}}</style>
<path fill-rule="evenodd" clip-rule="evenodd" d="M12 2H13V14.05C12.8384 14.0172 12.6712 14 12.5 14C12.3288 14 12.1616 14.0172 12 14.05V2ZM12.5 19C12.6712 19 12.8384 18.9828 13 18.95V22H12V18.95C12.1616 18.9828 12.3288 19 12.5 19ZM12.5 18C13.3284 18 14 17.3284 14 16.5C14 15.6716 13.3284 15 12.5 15C11.6716 15 11 15.6716 11 16.5C11 17.3284 11.6716 18 12.5 18Z"/>
</svg>
