<svg width="48" height="48" viewBox="0 0 48 48" fill="none" xmlns="http://www.w3.org/2000/svg">
<style>path{fill:#000}@media (prefers-color-scheme:dark){path{fill:#fff}}</style>
<path fill-rule="evenodd" clip-rule="evenodd" d="M41.268 39.7669L39.8557 41.183L16.9709 18.3582C17.261 18.1962 17.5319 17.9931 17.7758 17.7486C18.0196 17.5041 18.222 17.2327 18.3833 16.9421L41.268 39.7669ZM11.5108 11.5001C11.267 11.7446 11.0646 12.016 10.9033 12.3065L6 7.41607L7.41236 6L12.3157 10.8905C12.0255 11.0525 11.7546 11.2556 11.5108 11.5001ZM12.5136 12.5002C11.3435 13.6733 11.346 15.5728 12.5191 16.7428C13.6922 17.9129 15.5917 17.9104 16.7618 16.7372C17.9318 15.5641 17.9293 13.6646 16.7562 12.4946C15.5831 11.3246 13.6836 11.3271 12.5136 12.5002Z"/>
</svg>
