<svg width="24" height="24" viewBox="0 0 24 24" fill="none" xmlns="http://www.w3.org/2000/svg">
<style>path{fill:#000}@media (prefers-color-scheme:dark){path{fill:#fff}}</style>
<path fill-rule="evenodd" clip-rule="evenodd" d="M21 20.1328L20.1528 21L9.81825 10.6775C9.98324 10.5655 10.1397 10.4352 10.2847 10.2867C10.4298 10.1382 10.5567 9.97846 10.6654 9.81026L21 20.1328ZM5.9965 6.00354C5.85144 6.15204 5.72455 6.3118 5.61582 6.48L3 3.86725L3.84715 3L6.46297 5.61276C6.29798 5.72477 6.14156 5.85504 5.9965 6.00354ZM6.85415 6.86017C6.15234 7.57862 6.15939 8.73634 6.86988 9.446C7.58038 10.1557 8.72527 10.1485 9.42707 9.43009C10.1289 8.71164 10.1218 7.55392 9.41134 6.84426C8.70084 6.1346 7.55595 6.14172 6.85415 6.86017Z"/>
</svg>
