<svg width="24" height="24" viewBox="0 0 24 24" fill="none" xmlns="http://www.w3.org/2000/svg">
<style>path{fill:#000}@media (prefers-color-scheme:dark){path{fill:#fff}}</style>
<path fill-rule="evenodd" clip-rule="evenodd" d="M7 6.08481V10H10.9243L8.91965 8H8V7.08249L7 6.08481ZM11.1078 8H16V3H8V4.89939L7 3.90171V2H17V10H13.1125L11.1078 8ZM15.1171 12L17.1218 14H18V14.8762L19 15.8739V12H15.1171ZM19 18.057L18 17.0593V22H19V18.057ZM14.9336 14L11 10.0755V11H10V12H5V22H6V14H14.9336Z"/>
<rect x="3.09155" y="2" width="26.7599" height="1.54547" transform="rotate(44.9334 3.09155 2)" fill="black"/>
</svg>
